<svg xmlns="http://www.w3.org/2000/svg" width="33.894" height="29.743" viewBox="0 0 33.894 29.743">
  <g id="Layer_2" data-name="Layer 2" transform="translate(0 0.005)">
    <g id="Layer_1" data-name="Layer 1" transform="translate(0 -0.005)">
      <path id="Path_30" data-name="Path 30" d="M33.894,4.7v.53a2.074,2.074,0,0,0-.2.381Q31.78,12.27,29.877,18.934a1.023,1.023,0,0,1-1.19.891H12.206c-.693,0-.693,0-.93.645a.961.961,0,0,0,.64,1.282,1.942,1.942,0,0,0,.521.056H28.621c.109,0,.22-.005.33,0a.985.985,0,0,1,.854,1.313.96.96,0,0,1-.96.664H25.41c1.779.6,2.689,1.89,2.452,3.382A2.977,2.977,0,0,1,22,27.35c-.323-1.6.475-2.813,2.328-3.546H15.435a2.99,2.99,0,0,1-.178,5.916,2.979,2.979,0,0,1-3.178-2.133,2.869,2.869,0,0,1,.313-2.379,3.11,3.11,0,0,1,1.956-1.4c-.771-.023-1.53-.014-2.289-.025a2.938,2.938,0,0,1-2.809-3.3,10.425,10.425,0,0,1,.53-1.511.9.9,0,0,0,.05-.493q-2.305-8.1-4.622-16.207c-.071-.251-.189-.291-.413-.29-1.178.008-2.357-.019-3.531.012A1.2,1.2,0,0,1,0,1.259V.73A1.2,1.2,0,0,1,1.262,0C2.736.024,4.213,0,5.688,0A1.026,1.026,0,0,1,6.876.9c.294,1.02.588,2.04.883,3.073h.45l24.343,0c.554,0,1,.109,1.231.67C33.8,4.664,33.856,4.673,33.894,4.7Z" transform="translate(0 0.005)" fill="#fff"/>
    </g>
  </g>
</svg>
