<svg id="Layer_2" data-name="Layer 2" xmlns="http://www.w3.org/2000/svg" width="22.069" height="20.035" viewBox="0 0 22.069 20.035">
  <g id="Layer_1" data-name="Layer 1" transform="translate(0 0)">
    <path id="Path_33" data-name="Path 33" d="M11.069.013c1.969,0,3.938-.029,5.906.007a5,5,0,0,1,4.652,2.962A4.654,4.654,0,0,1,22.1,5.091c0,1.923.018,3.845-.006,5.768a4.893,4.893,0,0,1-2.641,4.421.618.618,0,0,0-.251.294c-.491,1.307-.974,2.62-1.463,3.93a.714.714,0,0,1-.948.479,1.036,1.036,0,0,1-.4-.324q-1.351-1.77-2.681-3.558a.436.436,0,0,0-.4-.2c-2.7.006-5.393-.019-8.089.011A5.143,5.143,0,0,1,.1,11.655a4.413,4.413,0,0,1-.061-.731Q.033,7.97.036,5.017A5.092,5.092,0,0,1,4.273.1,6.939,6.939,0,0,1,5.3.017C7.223.009,9.146.013,11.069.013ZM16.8,17.757c.035-.087.056-.136.074-.184.354-.96.714-1.918,1.061-2.881a1,1,0,0,1,.557-.6,3.439,3.439,0,0,0,2.134-3.282c.026-1.892.009-3.784.006-5.676a3.608,3.608,0,0,0-3.59-3.629q-5.974-.023-11.949,0A3.6,3.6,0,0,0,1.507,5.142q0,2.825,0,5.653a3.448,3.448,0,0,0,.067.683,3.628,3.628,0,0,0,3.656,2.961q4.3,0,8.593,0a.848.848,0,0,1,.761.381c.061.088.128.171.193.257Z" transform="translate(-0.035 -0.003)" fill="#fb4b4e"/>
    <path id="Path_34" data-name="Path 34" d="M102.151,84H106.4a.744.744,0,0,1,.8.882.715.715,0,0,1-.576.58,1.242,1.242,0,0,1-.228.023h-8.5A.746.746,0,1,1,97.877,84Z" transform="translate(-91.111 -78.842)" fill="#fb4b4e"/>
    <path id="Path_35" data-name="Path 35" d="M102.176,152.781H97.857a.733.733,0,0,1-.21-1.433.978.978,0,0,1,.271-.032h8.57a.736.736,0,1,1,.009,1.468Z" transform="translate(-91.169 -142.024)" fill="#fb4b4e"/>
  </g>
</svg>
