<svg xmlns="http://www.w3.org/2000/svg" width="27.346" height="31.54" viewBox="0 0 27.346 31.54">
  <g id="Layer_2" data-name="Layer 2" transform="translate(-0.011 0)">
    <g id="Layer_1" data-name="Layer 1" transform="translate(0.011 0)">
      <path id="Path_44" data-name="Path 44" d="M1.792,132.75a6.574,6.574,0,0,1-1.1-.623A2.027,2.027,0,0,1,.016,130.5q-.01-3.494,0-6.988a2.169,2.169,0,0,1,4.3-.479,5.011,5.011,0,0,1,.053.7v4.654H22.99V123.55a2.2,2.2,0,0,1,1.5-2.174,2.149,2.149,0,0,1,2.85,2.077c.033,2.369.021,4.74,0,7.109a2.136,2.136,0,0,1-1.609,2.118c-.056.018-.109.048-.165.071Z" transform="translate(-0.011 -101.211)" fill="#fb4b4e"/>
      <path id="Path_45" data-name="Path 45" d="M36.748,17.211V2.349A2.192,2.192,0,0,1,37.985.22a2.16,2.16,0,0,1,3.083,1.766c.012.185.018.37.018.554V17.212l.141.1a1.174,1.174,0,0,1,.165-.3c.807-.817,1.615-1.635,2.437-2.439a2.17,2.17,0,0,1,3.335,2.768,3.778,3.778,0,0,1-.3.347q-3.141,3.141-6.3,6.282a2.148,2.148,0,0,1-2.743.43,2.632,2.632,0,0,1-.529-.418q-3.171-3.154-6.324-6.317a2.157,2.157,0,0,1,.126-3.338,2.09,2.09,0,0,1,2.645.021c.916.838,1.777,1.734,2.658,2.609a2.748,2.748,0,0,1,.25.319Z" transform="translate(-25.242 0)" fill="#fb4b4e"/>
    </g>
  </g>
</svg>
