<svg xmlns="http://www.w3.org/2000/svg" width="219.278" height="48.31" viewBox="0 0 219.278 48.31">
  <g id="Group_1" data-name="Group 1" transform="translate(-1598 -49.088)">
    <text id="HeroBeat" transform="translate(1598 88.398)" fill="#fb4b4e" font-size="36" font-family="SegoeUI, Segoe UI"><tspan x="0" y="0">HeroBeat</tspan></text>
    <g id="Layer_2" data-name="Layer 2" transform="translate(1755.415 49.088)">
      <g id="Layer_1" data-name="Layer 1" transform="translate(0.002)">
        <path id="Path_1" data-name="Path 1" d="M193.781,89.771c0,3.015.044,6.034-.013,9.049a3.648,3.648,0,1,1-7.291.023c-.049-6.119-.065-12.238,0-18.355a3.69,3.69,0,0,1,3.63-3.791,3.747,3.747,0,0,1,3.671,4.027C193.8,83.74,193.784,86.756,193.781,89.771Z" transform="translate(-138.095 -56.809)" fill="#fb4b4e"/>
        <path id="Path_2" data-name="Path 2" d="M23.658,89.554c0-3.015-.034-6.031.016-9.046a3.6,3.6,0,0,1,6.938-1.551,6.308,6.308,0,0,1,.36,2.142c.029,5.73.044,11.46,0,17.191a5.979,5.979,0,0,1-.651,2.7,3.381,3.381,0,0,1-4.029,1.455,3.564,3.564,0,0,1-2.611-3.583C23.629,95.759,23.658,92.655,23.658,89.554Z" transform="translate(-17.516 -56.809)" fill="#fb4b4e"/>
        <path id="Path_3" data-name="Path 3" d="M77.134,17.452a20.038,20.038,0,0,0-38.854-.029l-2.111-.259a22.09,22.09,0,0,1,43.062-.026Z" transform="translate(-26.792)" fill="#fb4b4e"/>
        <path id="Path_4" data-name="Path 4" d="M98.6,101.792H96.75V76.123L98.6,76.04Z" transform="translate(-71.665 -56.324)" fill="#fb4b4e"/>
        <path id="Path_5" data-name="Path 5" d="M3.406,93v17.294C-.545,108.057-1.684,97.429,3.406,93Z" transform="translate(-0.002 -68.887)" fill="#fb4b4e"/>
        <path id="Path_6" data-name="Path 6" d="M225.58,93.26c4.488,4,4.5,13.154,0,17.385Z" transform="translate(-167.091 -69.079)" fill="#fb4b4e"/>
        <path id="Path_7" data-name="Path 7" d="M146.79,84.84h1.8v21.217h-1.8Z" transform="translate(-108.73 -62.842)" fill="#fb4b4e"/>
        <path id="Path_8" data-name="Path 8" d="M84.66,101.71h1.8v12.472h-1.8Z" transform="translate(-62.71 -75.338)" fill="#fb4b4e"/>
        <path id="Path_9" data-name="Path 9" d="M109.62,101.69h1.8v12.482h-1.8Z" transform="translate(-81.198 -75.323)" fill="#fb4b4e"/>
        <path id="Path_10" data-name="Path 10" d="M136.5,114.2H134.74V101.71H136.5Z" transform="translate(-99.805 -75.338)" fill="#fb4b4e"/>
        <path id="Path_11" data-name="Path 11" d="M71.89,113.71h1.779v6.223H71.89Z" transform="translate(-53.251 -84.227)" fill="#fb4b4e"/>
        <path id="Path_12" data-name="Path 12" d="M121.83,113.83h1.815v6.2H121.83Z" transform="translate(-90.242 -84.316)" fill="#fb4b4e"/>
        <path id="Path_13" data-name="Path 13" d="M161.452,120.127h-1.8v-6.2h1.8Z" transform="translate(-118.256 -84.39)" fill="#fb4b4e"/>
      </g>
    </g>
  </g>
</svg>
