<svg id="Layer_2" data-name="Layer 2" xmlns="http://www.w3.org/2000/svg" width="24.006" height="23.995" viewBox="0 0 24.006 23.995">
  <g id="Layer_1" data-name="Layer 1" transform="translate(0 0)">
    <path id="Path_20" data-name="Path 20" d="M15.881,23.974H8.18c-.108-.013-.215-.029-.324-.039-.77-.066-1.547-.086-2.309-.2a6.264,6.264,0,0,1-5.253-5,17.789,17.789,0,0,1-.277-3.594C0,13.02-.013,10.907.023,8.8A21.434,21.434,0,0,1,.266,5.457,6.094,6.094,0,0,1,4.781.352a10.293,10.293,0,0,1,2.99-.372c3.019,0,6.039-.009,9.058.025A9.8,9.8,0,0,1,18.961.28a6.06,6.06,0,0,1,4.463,3.81A9.479,9.479,0,0,1,24,7.653c0,2.652.013,5.3-.005,7.955a22.413,22.413,0,0,1-.146,2.525,6.411,6.411,0,0,1-1.294,3.221,6.723,6.723,0,0,1-5.11,2.521C16.925,23.916,16.4,23.942,15.881,23.974ZM12.03,21.849v-.042c.869,0,1.737.017,2.606,0a20.726,20.726,0,0,0,3.6-.221,4.054,4.054,0,0,0,3.32-3,9.227,9.227,0,0,0,.282-2.509c.028-1.987.055-3.974.035-5.961-.014-1.351-.052-2.707-.182-4.051a4.034,4.034,0,0,0-3.21-3.648,12.694,12.694,0,0,0-3.008-.26c-1.987-.023-3.975-.015-5.963-.009a20.012,20.012,0,0,0-3.58.2A4.046,4.046,0,0,0,2.478,5.481,10.541,10.541,0,0,0,2.22,8.088q-.029,3.884,0,7.769a15.191,15.191,0,0,0,.188,2.263,3.984,3.984,0,0,0,1.824,2.854,5.156,5.156,0,0,0,2.631.744C8.588,21.781,10.309,21.806,12.03,21.849Z" transform="translate(0 0.022)" fill="#fffdfd"/>
    <path id="Path_21" data-name="Path 21" d="M136.588,129.376A6.185,6.185,0,1,1,130.4,123.2,6.206,6.206,0,0,1,136.588,129.376Zm-6.184,4a3.984,3.984,0,1,0-2.828-1.164A4,4,0,0,0,130.4,133.379Z" transform="translate(-118.376 -117.405)" fill="#fffdfd"/>
    <path id="Path_22" data-name="Path 22" d="M363,90.35a1.442,1.442,0,1,1,1.451-1.434A1.442,1.442,0,0,1,363,90.35Z" transform="translate(-344.565 -83.35)" fill="#fffdfd"/>
  </g>
</svg>
