<svg id="Layer_2" data-name="Layer 2" xmlns="http://www.w3.org/2000/svg" width="24.006" height="24.008" viewBox="0 0 24.006 24.008">
  <g id="Layer_1" data-name="Layer 1">
    <path id="Path_23" data-name="Path 23" d="M0,22.622V1.385c.017-.02.042-.037.05-.06A1.744,1.744,0,0,1,1.89,0H22.207a1.74,1.74,0,0,1,1.8,1.772V22.228a1.747,1.747,0,0,1-1.769,1.778c-.656.005-1.313,0-1.968,0H1.865a1.75,1.75,0,0,1-1.808-1.3A.408.408,0,0,0,0,22.622Zm20.44-2.176c.007-.095.016-.167.016-.239,0-2.033.027-4.066-.012-6.1a14.014,14.014,0,0,0-.276-2.579,3.162,3.162,0,0,0-2.311-2.581,6.741,6.741,0,0,0-1.472-.222,3.729,3.729,0,0,0-3.509,1.751.915.915,0,0,1-.116.107V9.016H9.387V20.434h3.525v-.347c0-1.719,0-3.437,0-5.156a10.24,10.24,0,0,1,.07-1.243,1.922,1.922,0,0,1,2.273-1.833,1.493,1.493,0,0,1,1.47,1.236,6.488,6.488,0,0,1,.169,1.424c.019,1.866.009,3.733.01,5.6v.331ZM3.574,9.014V20.433H7.092V9.014ZM7.391,5.366a2.03,2.03,0,0,0-2.053-2.05A2.057,2.057,0,0,0,3.277,5.369a2.081,2.081,0,0,0,2.065,2.06,2.053,2.053,0,0,0,2.05-2.063Z" fill="#fffdfd"/>
  </g>
</svg>
