<svg xmlns="http://www.w3.org/2000/svg" width="24.809" height="29.743" viewBox="0 0 24.809 29.743">
  <g id="Layer_2" data-name="Layer 2" transform="translate(0.003 0)">
    <g id="Layer_1" data-name="Layer 1" transform="translate(-0.003 0)">
      <path id="Path_15" data-name="Path 15" d="M4.54,212.882c-.243-.051-.486-.1-.728-.154a4.654,4.654,0,0,1-3.746-4.16,15.1,15.1,0,0,1,.146-3.845,12.7,12.7,0,0,1,.844-3.242,6.292,6.292,0,0,1,2.765-3.32,5.432,5.432,0,0,1,2.7-.649,2.066,2.066,0,0,1,.888.308c.441.24.851.534,1.277.8a6.775,6.775,0,0,0,4.209,1.129A6.948,6.948,0,0,0,16,198.709a8.855,8.855,0,0,0,1-.648,2.832,2.832,0,0,1,2.556-.437,5.559,5.559,0,0,1,3.813,3,11.4,11.4,0,0,1,1.257,4.192,28.873,28.873,0,0,1,.18,3.27,4.713,4.713,0,0,1-3.9,4.671l-.616.123Z" transform="translate(0.003 -183.138)" fill="#fff"/>
      <path id="Path_16" data-name="Path 16" d="M83.967,7.161A7.17,7.17,0,1,1,76.813,0a7.17,7.17,0,0,1,7.155,7.161Z" transform="translate(-64.561 0)" fill="#fff"/>
    </g>
  </g>
</svg>
