<svg xmlns="http://www.w3.org/2000/svg" width="53.529" height="72.666" viewBox="0 0 53.529 72.666">
  <g id="Layer_2" data-name="Layer 2" transform="translate(-0.004 0.014)">
    <g id="Layer_1" data-name="Layer 1" transform="translate(0.004 -0.014)">
      <path id="Path_40" data-name="Path 40" d="M6.9,315.084a10.257,10.257,0,0,1-3.67-1.572,7.962,7.962,0,0,1,4.206-14.341c.354-.023.709-.042,1.063-.042H45.032a7.99,7.99,0,0,1,1.989,15.821,2.764,2.764,0,0,0-.392.138Zm12.631-9.857c-.034-.675-.25-1.154-.891-1.17-.7-.017-.836.548-.908,1.137-.538-.267-1.046-.347-1.355.19-.514.895.379,1.2.823,1.706-.411.518-1.352.836-.819,1.653.209.32.857.351,1.4.548a.789.789,0,0,0,.79.84c.779.051.88-.55,1-1.12.483.258.969.33,1.287-.155.6-.923-.379-1.234-.785-1.769.447-.5,1.3-.808.825-1.674-.294-.518-.8-.506-1.367-.18Zm24.4-.015c-.032-.639-.241-1.162-.919-1.154s-.836.514-.855,1.183c-.569-.345-1.1-.379-1.4.19-.461.864.391,1.17.834,1.666-.4.523-1.376.853-.792,1.706.209.3.836.318,1.374.5a.79.79,0,0,0,.777.84c.789.059.891-.54.948-.851.548-.169,1.122-.169,1.327-.442.639-.872-.353-1.226-.758-1.761.493-.485,1.3-.823.819-1.681-.3-.525-.806-.485-1.359-.19ZM9.616,304.9c-.569.2-1.154.227-1.352.519-.569.844.379,1.185.809,1.7-.48.5-1.308.823-.845,1.683.305.569.842.461,1.363.22.07.616.207,1.117.9,1.126.736.011.821-.554.912-1.147.521.282,1.029.366,1.344-.169.527-.891-.4-1.19-.8-1.721.44-.495,1.285-.806.832-1.666-.3-.569-.838-.51-1.4-.22-.017-.639-.19-1.137-.849-1.158a.872.872,0,0,0-.914.842Zm18.009.343c.025-.694-.212-1.151-.853-1.162-.7-.011-.876.518-.91,1.137-.506-.267-1.008-.364-1.34.159-.59.927.4,1.221.808,1.729-.413.535-1.327.785-.844,1.678.324.591.847.481,1.374.237.053.569.165,1.079.845,1.117.758.04.883-.525.969-1.12.527.269,1.026.334,1.342-.2.542-.916-.44-1.181-.813-1.706.427-.51,1.352-.8.808-1.706-.315-.531-.817-.472-1.384-.155Zm6.349,3.776c.091.54.176,1.081.868,1.117.758.04.866-.544,1.033-.978.447-.036,1.02-.036,1.221-.309.646-.885-.379-1.219-.758-1.759.453-.47,1.247-.773.851-1.608-.288-.608-.851-.542-1.426-.3,0-.607-.19-1.071-.808-1.107-.737-.042-.885.548-1,1.137-.481-.307-.933-.328-1.245.1-.682.948.39,1.257.749,1.824-.487.487-1.306.809-.811,1.672.305.544.815.47,1.333.21Z" transform="translate(-0.004 -242.423)" fill="#fb4b4e"/>
      <path id="Path_41" data-name="Path 41" d="M14.8,46.79A25.928,25.928,0,1,1,55.514,20.4,25.7,25.7,0,0,1,45.443,46.8,16.575,16.575,0,0,0,42.9,35.866a15.5,15.5,0,0,0-9.27-6.445c3.719-1.846,5.738-4.739,5.687-8.839a8.668,8.668,0,0,0-3.306-6.792,9.2,9.2,0,1,0-9.459,15.567C18.17,32.122,14.4,38,14.8,46.79Z" transform="translate(-3.385 0.014)" fill="#fb4b4e"/>
      <path id="Path_42" data-name="Path 42" d="M96.521,177.108a6.888,6.888,0,0,0,.011,1.2c.19,1.062-.313,1.579-1.221,2.04q-12.811,6.5-25.4-.349a1.053,1.053,0,0,1-.633-1.1,25.706,25.706,0,0,1,.569-6.824,13.614,13.614,0,0,1,26.4,1.223c.229,1.245.262,2.527.379,3.791Z" transform="translate(-56.145 -131.567)" fill="#fb4b4e"/>
      <path id="Path_43" data-name="Path 43" d="M109.1,85.622a7.482,7.482,0,1,1,7.539-7.37A7.548,7.548,0,0,1,109.1,85.622Z" transform="translate(-82.403 -57.261)" fill="#fb4b4e"/>
    </g>
  </g>
</svg>
