<svg id="Layer_2" data-name="Layer 2" xmlns="http://www.w3.org/2000/svg" width="22.069" height="19.393" viewBox="0 0 22.069 19.393">
  <g id="Layer_1" data-name="Layer 1" transform="translate(0 0)">
    <path id="Path_32" data-name="Path 32" d="M0,5.6A11.21,11.21,0,0,1,.269,4.417,6.15,6.15,0,0,1,5.162.089a5.723,5.723,0,0,1,5.69,2.641c.052.084.105.167.167.264.189-.267.357-.531.553-.773A5.554,5.554,0,0,1,15.406.061a5.807,5.807,0,0,1,5.445,2.49,6.174,6.174,0,0,1,1.178,4.532,9.906,9.906,0,0,1-1.626,4.28,24.8,24.8,0,0,1-4,4.77c-.784.748-1.6,1.468-2.418,2.176a4.56,4.56,0,0,1-5.876.029,37.648,37.648,0,0,1-4.774-4.685A15.266,15.266,0,0,1,.473,8.959C.273,8.373.182,7.751.039,7.146c-.01-.041-.026-.08-.039-.12Zm1.842.722-.058.009c.089.506.14,1.022.274,1.516a10.674,10.674,0,0,0,1.773,3.417,30.893,30.893,0,0,0,5.5,5.677,2.636,2.636,0,0,0,3.461-.058C13.854,15.954,14.9,15,15.9,14a19.307,19.307,0,0,0,3.166-4.037,7.246,7.246,0,0,0,1.147-3.6,4.3,4.3,0,0,0-1.55-3.474,3.741,3.741,0,0,0-3.009-1,4.377,4.377,0,0,0-3.684,3.95,7.049,7.049,0,0,1-.058.878.909.909,0,0,1-.972.68.934.934,0,0,1-.831-1A4.333,4.333,0,0,0,7.96,2.458a3.476,3.476,0,0,0-2.228-.592A4.386,4.386,0,0,0,1.842,6.327Z" transform="translate(0 -0.004)" fill="#fb4b4e"/>
  </g>
</svg>
