<svg id="Layer_2" data-name="Layer 2" xmlns="http://www.w3.org/2000/svg" width="22.069" height="27.353" viewBox="0 0 22.069 27.353">
  <g id="Layer_1" data-name="Layer 1" transform="translate(0)">
    <path id="Path_31" data-name="Path 31" d="M11.6,0c.36.088.728.155,1.08.268A5.2,5.2,0,0,1,16.246,5.2v.571h3.023a.865.865,0,0,1,.927.857c.168,1.592.347,3.182.519,4.773.168,1.565.33,3.13.5,4.7s.345,3.129.516,4.693c.11,1.008.228,2.015.325,3.024a3.177,3.177,0,0,1-3.221,3.539q-7.786,0-15.573,0a3.188,3.188,0,0,1-3.227-3.72c.181-1.392.3-2.794.453-4.19s.306-2.791.457-4.19q.2-1.843.4-3.688t.4-3.713c.044-.407.092-.813.13-1.22A.858.858,0,0,1,2.8,5.774H5.826c0-.248,0-.476,0-.7A5.215,5.215,0,0,1,10.3.055,1.086,1.086,0,0,0,10.473,0ZM3.479,7.476c-.15,1.417-.295,2.8-.446,4.2q-.336,3.09-.678,6.178c-.214,1.962-.419,3.925-.639,5.889-.132,1.178.45,1.932,1.555,1.934q7.76.01,15.519,0a1.451,1.451,0,0,0,1.573-1.66c-.049-.781-.154-1.557-.238-2.335q-.2-1.857-.4-3.713t-.4-3.686q-.2-1.869-.406-3.739c-.11-1.015-.22-2.03-.331-3.052h-2.34V9.507a.841.841,0,1,1-1.676.009c-.009-.535,0-1.068,0-1.6V7.49H7.505v.337c0,.605.011,1.212-.013,1.816a.8.8,0,0,1-.866.783.813.813,0,0,1-.8-.832c-.007-.4,0-.8,0-1.2v-.91ZM14.534,5.763a3.535,3.535,0,1,0-6.986,0Z" transform="translate(-0.002)" fill="#fb4b4e"/>
  </g>
</svg>
