<svg id="Layer_2" data-name="Layer 2" xmlns="http://www.w3.org/2000/svg" width="28.223" height="31.54" viewBox="0 0 28.223 31.54">
  <g id="Layer_1" data-name="Layer 1" transform="translate(0)">
    <path id="Path_29" data-name="Path 29" d="M2.883,0H3.87A11.664,11.664,0,0,1,5.307.588q6,3.438,11.984,6.912Q21.9,10.159,26.5,12.821a3.349,3.349,0,0,1,1.646,3.585A3.4,3.4,0,0,1,26.383,18.8q-5.967,3.436-11.927,6.884c-3.114,1.8-6.225,3.606-9.35,5.386A3.385,3.385,0,0,1-.01,28.125Q-.02,15.748-.01,3.374A3.334,3.334,0,0,1,2.13.247C2.377.149,2.633.082,2.883,0Z" transform="translate(0.015)" fill="#fb4b4e"/>
  </g>
</svg>
