<svg id="Layer_2" data-name="Layer 2" xmlns="http://www.w3.org/2000/svg" width="18.724" height="18.014" viewBox="0 0 18.724 18.014">
  <g id="Layer_1" data-name="Layer 1" transform="translate(0)">
    <path id="Path_28" data-name="Path 28" d="M18.762,7.28a1.919,1.919,0,0,1-.612,1.472q-1.395,1.361-2.791,2.72a.345.345,0,0,0-.126.353c.228,1.284.441,2.571.66,3.856a1.861,1.861,0,0,1-.75,1.93,1.839,1.839,0,0,1-2.062.161q-1.707-.881-3.4-1.789a.507.507,0,0,0-.551-.005c-1.1.594-2.213,1.154-3.308,1.752a1.97,1.97,0,0,1-2.878-1.122,3.048,3.048,0,0,1,.043-1.419c.189-1.126.38-2.253.586-3.376a.324.324,0,0,0-.117-.333Q2.048,10.113.648,8.742A1.949,1.949,0,0,1,.771,5.8a2.694,2.694,0,0,1,1.41-.469c1.155-.163,2.311-.325,3.464-.5a.416.416,0,0,0,.254-.21Q6.762,2.906,7.6,1.18a1.96,1.96,0,0,1,3.6.012c.554,1.146,1.127,2.282,1.683,3.426a.376.376,0,0,0,.331.228c1.316.187,2.632.368,3.944.581a1.873,1.873,0,0,1,1.6,1.853Z" transform="translate(-0.04)" fill="#a1a1a1"/>
  </g>
</svg>
