<svg id="Layer_2" data-name="Layer 2" xmlns="http://www.w3.org/2000/svg" width="22.244" height="16.645" viewBox="0 0 22.244 16.645">
  <g id="Layer_1" data-name="Layer 1">
    <path id="Path_36" data-name="Path 36" d="M0,2.276c.025-.1.049-.208.074-.312A2.6,2.6,0,0,1,2.579,0H14.073a2.591,2.591,0,0,1,2.574,2.578q0,.813,0,1.626a.78.78,0,1,1-1.559,0V2.676a1.051,1.051,0,0,0-1.121-1.117H2.685A1.055,1.055,0,0,0,1.56,2.693V13.956a1.052,1.052,0,0,0,1.124,1.129H13.967a1.053,1.053,0,0,0,1.12-1.118V12.439a.78.78,0,1,1,1.56,0v1.642a2.6,2.6,0,0,1-2.186,2.53.5.5,0,0,0-.087.032H2.276a.334.334,0,0,0-.072-.03,2.568,2.568,0,0,1-2.117-1.9C.053,14.6.029,14.483,0,14.369Z" fill="#fb4b4e"/>
    <path id="Path_37" data-name="Path 37" d="M289.034,110.328q-1.44,1.445-2.885,2.884a.784.784,0,1,1-1.1-1.115q.7-.711,1.412-1.416c.041-.041.08-.084.146-.154h-6.656a.779.779,0,0,1-.492-1.383.792.792,0,0,1,.474-.174h6.675c-.069-.072-.108-.115-.149-.156-.471-.471-.944-.941-1.413-1.414a.783.783,0,1,1,1.1-1.112q1.446,1.438,2.885,2.884A.772.772,0,0,1,289.034,110.328Z" transform="translate(-267.048 -101.424)" fill="#fb4b4e"/>
    <path id="Path_38" data-name="Path 38" d="M144.161,175.186a.779.779,0,0,1-.491-1.383.817.817,0,0,1,.542-.178q2.916,0,5.831,0a.792.792,0,0,0-.474.174.779.779,0,0,0,.492,1.383" transform="translate(-137.156 -166.084)" fill="#fb4b4e"/>
    <path id="Path_39" data-name="Path 39" d="M283.154,175.145l-.2.2h-2.982a.779.779,0,0,1-.492-1.383.792.792,0,0,1,.474-.174h3l.2.2A.773.773,0,0,1,283.154,175.145Z" transform="translate(-267.067 -166.242)" fill="#fb4b4e"/>
  </g>
</svg>
