<svg xmlns="http://www.w3.org/2000/svg" width="20.805" height="20.843" viewBox="0 0 20.805 20.843">
  <g id="Layer_2" data-name="Layer 2" transform="translate(0.01 -0.023)">
    <g id="Layer_1" data-name="Layer 1" transform="translate(-0.01 0.023)">
      <path id="Path_25" data-name="Path 25" d="M15.92,20.866a10.642,10.642,0,0,1-2.692-.648,19.785,19.785,0,0,1-5.67-3.392,24.726,24.726,0,0,1-5.9-6.956A14.031,14.031,0,0,1,.034,5.549a1.583,1.583,0,0,1,.228-1.3A22.978,22.978,0,0,1,3.443.5a4.658,4.658,0,0,1,.5-.38A.486.486,0,0,1,4.56.148a2.2,2.2,0,0,1,.421.428,29.106,29.106,0,0,1,2.546,4.23c.043.09.068.19.115.278A.757.757,0,0,1,7.42,6.1c-.453.4-.895.814-1.366,1.19a.637.637,0,0,0-.2.834,10.836,10.836,0,0,0,6.757,6.811c.559.206.575.2.977-.24.331-.358.64-.737.96-1.1.071-.081.148-.158.222-.237a.757.757,0,0,1,.942-.19,21.428,21.428,0,0,1,3.006,1.651c.506.315,1,.643,1.485.994.745.542.782.838.162,1.516a20.032,20.032,0,0,1-4,3.346A2.615,2.615,0,0,1,15.92,20.866Z" transform="translate(0.01 -0.023)" fill="#fff"/>
      <path id="Path_26" data-name="Path 26" d="M189.212,10.094H187.74a8.236,8.236,0,0,0-8.17-8.178V.464A9.622,9.622,0,0,1,189.212,10.094Z" transform="translate(-168.416 -0.432)" fill="#fff"/>
      <path id="Path_27" data-name="Path 27" d="M185.406,66.288h-1.469a4.5,4.5,0,0,0-4.456-4.458V60.383A5.879,5.879,0,0,1,185.406,66.288Z" transform="translate(-168.332 -56.624)" fill="#fff"/>
    </g>
  </g>
</svg>
