<svg id="Layer_2" data-name="Layer 2" xmlns="http://www.w3.org/2000/svg" width="24.006" height="24.012" viewBox="0 0 24.006 24.012">
  <g id="Layer_1" data-name="Layer 1" transform="translate(0 0)">
    <path id="Path_19" data-name="Path 19" d="M24.007,11.159v1.688c-.052.376-.09.757-.157,1.132a11.8,11.8,0,0,1-4.5,7.509,11.667,11.667,0,0,1-9.02,2.4,11.532,11.532,0,0,1-7.16-3.767A11.728,11.728,0,0,1,.115,10.335,11.456,11.456,0,0,1,2.9,4.181a11.789,11.789,0,0,1,7.016-4C10.329.11,10.747.059,11.163,0h1.686c.277.036.554.068.831.108a11.742,11.742,0,0,1,5.4,2.2A11.828,11.828,0,0,1,23.82,9.891C23.9,10.31,23.945,10.736,24.007,11.159ZM11.84,15.8c.063.043.114.076.164.113l2.678,1.974c.665.489,1.095.321,1.265-.484.585-2.767,1.178-5.533,1.76-8.3a8.585,8.585,0,0,0,.2-1.315.534.534,0,0,0-.716-.538,1.937,1.937,0,0,0-.266.086l-8.635,3.33c-.988.381-1.978.76-2.962,1.153-.207.083-.446.205-.429.472s.276.338.49.406c.905.288,1.817.564,2.719.854a.438.438,0,0,0,.412-.063q2.087-1.321,4.179-2.635c.845-.532,1.691-1.069,2.541-1.588.1-.063.259-.031.391-.043a1.265,1.265,0,0,1-.18.289Q12.821,11.9,10.19,14.281a.6.6,0,0,0-.188.346c-.063.661-.1,1.324-.146,1.986-.019.286-.034.573-.051.86l.054.059a3.317,3.317,0,0,0,.512-.321C10.866,16.755,11.348,16.277,11.84,15.8Z" transform="translate(-0.001 0)" fill="#fffdfd"/>
  </g>
</svg>
