<svg id="Layer_2" data-name="Layer 2" xmlns="http://www.w3.org/2000/svg" width="24.006" height="24.002" viewBox="0 0 24.006 24.002">
  <g id="Layer_1" data-name="Layer 1" transform="translate(0 0)">
    <path id="Path_24" data-name="Path 24" d="M24.014,11.16v1.689c-.035.268-.067.538-.106.806a11.841,11.841,0,0,1-2.831,6.2,11.806,11.806,0,0,1-6.945,3.956c-.419.076-.843.125-1.266.188H11.18c-.268-.035-.538-.063-.806-.106a11.721,11.721,0,0,1-7.777-4.5A11.571,11.571,0,0,1,.5,8.732,11.637,11.637,0,0,1,6.875,1.177,11.588,11.588,0,0,1,14.008.17a11.628,11.628,0,0,1,5.9,2.8A11.813,11.813,0,0,1,23.83,9.892C23.9,10.312,23.952,10.737,24.014,11.16ZM18.336,6.83c-.5.178-.991.354-1.484.534a.349.349,0,0,1-.39-.1,2.632,2.632,0,0,0-2.873-.514,2.619,2.619,0,0,0-1.715,2.336c-.026.274,0,.552,0,.843A7.922,7.922,0,0,1,6.216,7.04a2.842,2.842,0,0,0,.821,3.675L7,10.767,5.83,10.436a2.809,2.809,0,0,0,2.137,2.68l-.016.058H6.815a2.739,2.739,0,0,0,.967,1.357,2.941,2.941,0,0,0,1.6.563,5.65,5.65,0,0,1-3.962,1.161c.033.048.038.063.048.07.053.034.106.066.16.1a7.661,7.661,0,0,0,3.812,1.04,7.429,7.429,0,0,0,4.249-1.148,7.837,7.837,0,0,0,3.677-6.768.521.521,0,0,1,.223-.464,4.889,4.889,0,0,0,1.126-1.214c-.2.07-.352.125-.506.173s-.33.093-.5.132c-.149.035-.3.063-.451.089A3.17,3.17,0,0,0,18.336,6.83Z" transform="translate(-0.008 0.002)" fill="#fffdfd"/>
  </g>
</svg>
